<svg xmlns="http://www.w3.org/2000/svg" width="34" height="17" fill="none"><path fill="#EFEFEF" d="M.62 9.182h31.76c.342 0 .62-.306.62-.682 0-.376-.278-.682-.62-.682H.62c-.342 0-.62.306-.62.682 0 .376.278.682.62.682Z"/><path fill="#EFEFEF" stroke="#EFEFEF" stroke-width=".682" d="M25.154 16a.312.312 0 0 0 .214-.084l7.577-7.214a.283.283 0 0 0 .088-.204.283.283 0 0 0-.088-.203l-7.578-7.21a.313.313 0 0 0-.427 0 .278.278 0 0 0 0 .406l7.364 7.007-7.364 7.01a.278.278 0 0 0 0 .407.31.31 0 0 0 .214.085Z"/></svg>